<svg width="538" height="661" viewBox="0 0 538 661" fill="none" xmlns="http://www.w3.org/2000/svg">
<path d="M447.613 147.614C466.883 166.883 476.517 176.517 481.593 188.769C486.667 201.02 486.667 214.645 486.667 241.895V486.667C486.667 549.52 486.667 580.947 467.14 600.473C447.613 620 416.187 620 353.333 620H153.333C90.4793 620 59.0523 620 39.5263 600.473C20 580.947 20 549.52 20 486.667V153.333C20 90.4793 20 59.0523 39.5263 39.5263C59.0523 20 90.4793 20 153.333 20H264.77C292.02 20 305.647 20 317.897 25.0747C330.15 30.1493 339.783 39.7837 359.053 59.0523L447.613 147.614Z" fill="#F2F2F2" stroke="#F2F2F2" stroke-width="40"/>
<path d="M283.833 162H113.833C109.13 162 105.333 156.193 105.333 149C105.333 141.807 109.13 136 113.833 136H283.833C288.537 136 292.333 141.807 292.333 149C292.333 156.193 288.537 162 283.833 162Z" fill="#F2F2F2"/>
<path d="M283.833 346H113.833C109.13 346 105.333 340.193 105.333 333C105.333 325.807 109.13 320 113.833 320H283.833C288.537 320 292.333 325.807 292.333 333C292.333 340.193 288.537 346 283.833 346Z" fill="#F2F2F2"/>
<path d="M349.697 250H116.97C110.531 250 105.333 244.193 105.333 237C105.333 229.807 110.531 224 116.97 224H349.697C356.136 224 361.333 229.807 361.333 237C361.333 244.193 356.136 250 349.697 250Z" fill="#F2F2F2"/>
<path d="M153.333 40H264.77C293.652 40 302.523 40.354 310.242 43.5518L310.244 43.5527C317.484 46.5511 323.667 52.0299 341.241 69.5312L344.912 73.1953L433.471 161.756L433.472 161.757C453.89 182.174 459.914 188.699 463.115 196.42V196.421C466.313 204.143 466.667 213.014 466.667 241.895V486.667C466.667 518.659 466.624 540.641 464.404 557.152C462.262 573.088 458.426 580.903 452.998 586.331C447.57 591.759 439.755 595.595 423.819 597.737C407.308 599.957 385.325 600 353.333 600H153.333C121.341 600 99.3584 599.957 82.8467 597.737C66.9104 595.595 59.0965 591.759 53.6689 586.331C48.241 580.903 44.4053 573.089 42.2627 557.152C40.0427 540.641 40 518.659 40 486.667V153.333C40 121.341 40.0427 99.3584 42.2627 82.8467C44.4053 66.9107 48.2405 59.0965 53.668 53.6689L53.6689 53.668C59.0965 48.2405 66.9107 44.4053 82.8467 42.2627C99.3584 40.0427 121.341 40 153.333 40Z" stroke="url(#paint0_linear_1_1244)" stroke-width="40" stroke-linejoin="round"/>
<path d="M283.833 162H113.833C109.13 162 105.333 156.193 105.333 149C105.333 141.807 109.13 136 113.833 136H283.833C288.537 136 292.333 141.807 292.333 149C292.333 156.193 288.537 162 283.833 162Z" fill="url(#paint1_linear_1_1244)"/>
<path d="M283.833 346H113.833C109.13 346 105.333 340.193 105.333 333C105.333 325.807 109.13 320 113.833 320H283.833C288.537 320 292.333 325.807 292.333 333C292.333 340.193 288.537 346 283.833 346Z" fill="url(#paint2_linear_1_1244)"/>
<path d="M349.697 250H116.97C110.531 250 105.333 244.193 105.333 237C105.333 229.807 110.531 224 116.97 224H349.697C356.136 224 361.333 229.807 361.333 237C361.333 244.193 356.136 250 349.697 250Z" fill="url(#paint3_linear_1_1244)"/>
<path d="M455.775 357.32L275.445 548.52L198.212 466.594C194.83 463.005 190.814 460.157 186.394 458.214C181.974 456.271 177.236 455.27 172.451 455.268C162.787 455.265 153.517 459.331 146.681 466.574C139.846 473.817 136.003 483.642 136 493.889C135.997 504.135 139.832 513.963 146.663 521.211L247.138 627.743C250.86 631.69 255.278 634.822 260.141 636.958C265.004 639.095 270.217 640.194 275.481 640.194C280.745 640.194 285.958 639.095 290.821 636.958C295.684 634.822 300.102 631.69 303.824 627.743L507.324 411.976C510.709 408.387 513.394 404.127 515.225 399.438C517.057 394.749 518 389.723 518 384.648C518 379.572 517.057 374.547 515.225 369.858C513.394 365.169 510.709 360.908 507.324 357.32C503.939 353.731 499.921 350.884 495.498 348.942C491.076 347 486.336 346 481.549 346C476.763 346 472.023 347 467.6 348.942C463.178 350.884 459.16 353.731 455.775 357.32Z" fill="#F2F2F2" stroke="#F2F2F2" stroke-width="40"/>
<path d="M455.775 357.32L275.445 548.52L198.212 466.594C194.83 463.005 190.814 460.157 186.394 458.214C181.974 456.271 177.236 455.27 172.451 455.268C162.787 455.265 153.517 459.331 146.681 466.574C139.846 473.817 136.003 483.642 136 493.889C135.997 504.135 139.832 513.963 146.663 521.211L247.138 627.743C250.86 631.69 255.278 634.822 260.141 636.958C265.004 639.095 270.217 640.194 275.481 640.194C280.745 640.194 285.958 639.095 290.821 636.958C295.684 634.822 300.102 631.69 303.824 627.743L507.324 411.976C510.709 408.387 513.394 404.127 515.225 399.438C517.057 394.749 518 389.723 518 384.648C518 379.572 517.057 374.547 515.225 369.858C513.394 365.169 510.709 360.908 507.324 357.32C503.939 353.731 499.921 350.884 495.498 348.942C491.076 347 486.336 346 481.549 346C476.763 346 472.023 347 467.6 348.942C463.178 350.884 459.16 353.731 455.775 357.32Z" fill="url(#paint4_radial_1_1244)"/>
<defs>
<linearGradient id="paint0_linear_1_1244" x1="253.333" y1="20" x2="253.333" y2="620" gradientUnits="userSpaceOnUse">
<stop stop-color="#594DE6"/>
<stop offset="1" stop-color="#666666"/>
</linearGradient>
<linearGradient id="paint1_linear_1_1244" x1="198.833" y1="136" x2="198.833" y2="162" gradientUnits="userSpaceOnUse">
<stop stop-color="#594DE6"/>
<stop offset="1" stop-color="#A65EED"/>
</linearGradient>
<linearGradient id="paint2_linear_1_1244" x1="198.833" y1="320" x2="198.833" y2="346" gradientUnits="userSpaceOnUse">
<stop stop-color="#594DE6"/>
<stop offset="1" stop-color="#A65EED"/>
</linearGradient>
<linearGradient id="paint3_linear_1_1244" x1="233.333" y1="224" x2="233.333" y2="250" gradientUnits="userSpaceOnUse">
<stop stop-color="#594DE6"/>
<stop offset="1" stop-color="#A65EED"/>
</linearGradient>
<radialGradient id="paint4_radial_1_1244" cx="0" cy="0" r="1" gradientUnits="userSpaceOnUse" gradientTransform="translate(327 493.097) rotate(-79.1883) scale(132.706 132.706)">
<stop offset="0.00473038" stop-color="#594DE6"/>
<stop offset="0.993136" stop-color="#A65EED"/>
</radialGradient>
</defs>
</svg>
