<svg width="252" height="311" viewBox="0 0 252 311" fill="none" xmlns="http://www.w3.org/2000/svg">
<path d="M44.7969 0.0465977C46.7459 0.0441669 48.695 0.0404447 50.6441 0.0355351C55.9146 0.0261642 61.1849 0.0355189 66.4554 0.0488673C71.9809 0.0602194 77.5065 0.0560714 83.0321 0.0541203C92.3074 0.0532387 101.583 0.0642918 110.858 0.0827305C121.572 0.103909 132.287 0.107405 143.001 0.101169C153.323 0.0954692 163.645 0.101127 173.967 0.112342C178.354 0.116979 182.74 0.117866 187.127 0.115756C192.293 0.113869 197.459 0.122009 202.625 0.137817C204.518 0.14205 206.411 0.142917 208.304 0.140126C210.893 0.13689 213.482 0.146024 216.071 0.158216C217.188 0.152547 217.188 0.152547 218.327 0.146763C229.044 0.235683 237.108 3.85562 244.845 11.1494C250.029 18.1701 251.105 24.9092 251.022 33.4631C251.03 35.0822 251.031 35.0822 251.039 36.734C251.053 40.3336 251.038 43.9326 251.023 47.5322C251.026 50.1199 251.032 52.7076 251.039 55.2952C251.053 61.5837 251.045 67.8719 251.03 74.1603C251.013 81.4902 251.017 88.82 251.02 96.1498C251.026 109.232 251.012 122.314 250.988 135.396C250.964 148.078 250.957 160.76 250.967 173.441C250.978 187.265 250.98 201.089 250.966 214.913C250.964 216.389 250.963 217.864 250.961 219.339C250.961 220.065 250.96 220.791 250.959 221.539C250.954 226.643 250.956 231.747 250.96 236.851C250.966 243.726 250.955 250.601 250.933 257.476C250.928 259.997 250.927 262.519 250.932 265.04C250.938 268.485 250.926 271.93 250.909 275.375C250.918 276.867 250.918 276.867 250.927 278.389C250.838 288.169 248.406 296.284 241.521 303.419C234.078 309.606 225.369 310.728 215.951 310.68C215.138 310.683 214.325 310.687 213.487 310.691C210.788 310.701 208.089 310.698 205.39 310.694C203.445 310.698 201.499 310.703 199.553 310.709C194.287 310.722 189.02 310.723 183.754 310.72C179.35 310.719 174.947 310.724 170.543 310.729C160.152 310.74 149.761 310.741 139.369 310.735C128.664 310.729 117.958 310.741 107.252 310.762C98.0458 310.78 88.8396 310.786 79.6334 310.783C74.1413 310.781 68.6493 310.783 63.1572 310.797C57.9918 310.81 52.8267 310.808 47.6613 310.795C45.7707 310.792 43.8802 310.795 41.9896 310.803C18.7357 310.898 18.7357 310.898 9.34521 303.298C3.74484 297.53 0.404746 290.84 0.386768 282.813C0.38231 281.888 0.377853 280.962 0.37326 280.009C0.373445 278.995 0.373627 277.982 0.373817 276.938C0.370141 275.859 0.366463 274.78 0.362675 273.668C0.351631 270.039 0.347794 266.41 0.343987 262.781C0.337722 260.185 0.331076 257.588 0.324074 254.991C0.304325 247.19 0.294246 239.389 0.285347 231.588C0.280962 227.912 0.275593 224.237 0.270355 220.562C0.253345 208.342 0.238854 196.122 0.231609 183.902C0.2297 180.731 0.227778 177.561 0.225822 174.391C0.225339 173.603 0.224856 172.816 0.224358 172.004C0.216058 159.242 0.19072 146.48 0.158241 133.718C0.125156 120.611 0.10716 107.504 0.103966 94.3968C0.101802 87.0395 0.0930713 79.6824 0.0675011 72.3251C0.0434996 65.4034 0.0399816 58.4819 0.0502663 51.5601C0.0507623 49.0209 0.0444203 46.4816 0.0307083 43.9424C0.013022 40.4729 0.0200806 37.0042 0.0332413 33.5347C0.0167874 32.0315 0.0167863 32.0315 0 30.4979C0.0780301 21.9632 2.46916 14.6437 8.52099 8.41891C18.9164 -0.889565 31.6981 -0.010689 44.7969 0.0465977ZM26.8327 26.672C25.1896 28.8603 25.1452 30.0272 25.1435 32.7465C25.1356 33.6354 25.1278 34.5243 25.1198 35.4401C25.1265 36.4177 25.1331 37.3952 25.14 38.4023C25.1354 39.44 25.1307 40.4776 25.1259 41.5468C25.1138 45.0407 25.1234 48.5343 25.1328 52.0283C25.1287 54.5263 25.1234 57.0243 25.1169 59.5223C25.1046 65.613 25.1064 71.7036 25.1151 77.7943C25.1219 82.7432 25.1228 87.6921 25.1195 92.641C25.1191 93.3446 25.1186 94.0483 25.1181 94.7733C25.1172 96.2027 25.1162 97.632 25.1152 99.0614C25.1067 112.473 25.1165 125.884 25.1326 139.295C25.146 150.809 25.1437 162.323 25.1299 173.837C25.1138 187.199 25.1075 200.562 25.1167 213.924C25.1177 215.348 25.1186 216.773 25.1195 218.197C25.12 218.898 25.1205 219.598 25.1209 220.32C25.1235 225.265 25.1192 230.209 25.1121 235.154C25.1028 241.805 25.1094 248.457 25.1268 255.109C25.1308 257.555 25.1296 260.002 25.123 262.448C25.1148 265.778 25.125 269.106 25.14 272.436C25.1333 273.413 25.1267 274.391 25.1198 275.398C25.1276 276.287 25.1354 277.175 25.1435 278.091C25.144 278.86 25.1444 279.629 25.1449 280.421C25.6285 282.99 26.4381 283.873 28.521 285.419C31.1676 285.714 33.5792 285.824 36.2266 285.8C37.0192 285.805 37.8119 285.809 38.6285 285.814C41.2934 285.826 43.9577 285.817 46.6226 285.807C48.5294 285.811 50.4363 285.817 52.3432 285.823C57.5291 285.837 62.7147 285.831 67.9006 285.822C73.3205 285.814 78.7403 285.821 84.1601 285.826C93.2629 285.832 102.366 285.824 111.468 285.81C122.001 285.794 132.534 285.799 143.068 285.816C152.101 285.829 161.135 285.831 170.168 285.823C175.568 285.818 180.968 285.818 186.367 285.828C191.443 285.836 196.519 285.83 201.595 285.813C203.461 285.809 205.327 285.81 207.193 285.817C209.734 285.825 212.274 285.815 214.815 285.8C215.559 285.807 216.304 285.813 217.07 285.82C220.887 285.826 220.887 285.826 224.209 284.166C225.852 281.978 225.897 280.811 225.898 278.091C225.906 277.202 225.914 276.314 225.922 275.398C225.916 274.42 225.909 273.443 225.902 272.436C225.909 270.879 225.909 270.879 225.916 269.291C225.928 265.797 225.919 262.304 225.909 258.81C225.913 256.312 225.919 253.814 225.925 251.316C225.937 245.225 225.936 239.134 225.927 233.044C225.92 228.095 225.919 223.146 225.922 218.197C225.923 217.141 225.923 217.141 225.924 216.065C225.925 214.635 225.926 213.206 225.927 211.776C225.935 198.365 225.925 184.954 225.909 171.543C225.896 160.029 225.898 148.515 225.912 137.001C225.928 123.638 225.934 110.276 225.925 96.9135C225.924 95.4893 225.923 94.0652 225.922 92.641C225.922 91.9402 225.921 91.2394 225.921 90.5174C225.918 85.573 225.923 80.6286 225.93 75.6842C225.939 69.0325 225.933 62.381 225.915 55.7293C225.911 53.2827 225.912 50.8361 225.919 48.3895C225.927 45.0602 225.917 41.7315 225.902 38.4023C225.912 36.936 225.912 36.936 225.922 35.4401C225.914 34.5512 225.907 33.6623 225.898 32.7465C225.898 31.9777 225.898 31.2088 225.897 30.4167C225.413 27.8475 224.604 26.9649 222.521 25.4189C219.874 25.1242 217.463 25.0142 214.815 25.038C214.023 25.0333 213.23 25.0286 212.413 25.0238C209.749 25.0118 207.084 25.0213 204.419 25.0307C202.513 25.0267 200.606 25.0213 198.699 25.0148C193.513 25.0011 188.327 25.0064 183.141 25.0159C177.722 25.0235 172.302 25.0165 166.882 25.0118C157.779 25.0063 148.676 25.0135 139.574 25.0278C129.041 25.0441 118.508 25.0388 107.974 25.0223C98.9408 25.0087 89.9072 25.0068 80.8736 25.0146C75.4739 25.0193 70.0742 25.0199 64.6745 25.01C59.5987 25.0014 54.5231 25.0073 49.4473 25.0247C47.5812 25.0287 45.7151 25.0275 43.8491 25.0209C41.308 25.0128 38.7676 25.023 36.2266 25.038C35.4825 25.0313 34.7384 25.0246 33.9718 25.0177C30.1548 25.0121 30.1548 25.0121 26.8327 26.672Z" fill="white"/>
<path d="M79.4807 74.0146C81.1208 74.0044 81.1208 74.0044 82.794 73.9939C86.4013 73.9756 90.0082 73.9794 93.6155 73.9851C96.126 73.9805 98.6366 73.9752 101.147 73.9692C106.406 73.9603 111.665 73.9625 116.924 73.9727C122.994 73.9841 129.064 73.9701 135.134 73.9433C140.986 73.9184 146.838 73.9159 152.69 73.9224C155.174 73.9225 157.659 73.9165 160.144 73.9041C163.617 73.8892 167.089 73.8998 170.563 73.917C172.101 73.9025 172.101 73.9025 173.671 73.8877C179.613 73.9492 182.981 74.4882 187.522 78.4187C190.72 82.1497 190.988 85.5242 190.807 90.2703C190.274 94.2879 188.648 96.4779 185.598 99.0263C180.953 101.129 176.535 100.844 171.493 100.823C170.38 100.83 169.267 100.836 168.121 100.844C164.443 100.862 160.766 100.858 157.088 100.852C154.531 100.857 151.975 100.862 149.418 100.868C144.059 100.877 138.7 100.875 133.341 100.865C127.154 100.853 120.968 100.867 114.781 100.894C108.82 100.919 102.859 100.921 96.8972 100.915C94.3651 100.915 91.8329 100.921 89.3008 100.933C85.7603 100.948 82.2207 100.938 78.6802 100.92C77.6343 100.93 76.5884 100.94 75.5108 100.95C69.5383 100.889 66.0478 100.439 61.5217 96.4187C58.5423 91.9495 59.0377 87.658 59.5217 82.4187C60.8276 78.9364 61.8735 77.8451 64.954 75.819C69.861 73.8931 74.254 73.9917 79.4807 74.0146Z" fill="white"/>
<path d="M111.522 131.419C115.974 133.731 118.337 135.936 120.522 140.419C120.903 143.561 120.903 143.561 120.91 147.134C120.915 147.788 120.92 148.442 120.926 149.116C120.939 151.268 120.93 153.419 120.92 155.571C120.922 157.074 120.925 158.577 120.929 160.08C120.933 163.227 120.927 166.373 120.913 169.519C120.896 173.542 120.905 177.564 120.923 181.587C120.934 184.69 120.931 187.793 120.923 190.896C120.921 192.379 120.924 193.861 120.931 195.344C120.938 197.421 120.926 199.498 120.91 201.575C120.907 202.755 120.905 203.934 120.903 205.15C120.362 209.786 118.915 213.189 115.397 216.294C111.352 217.877 107.807 218.106 103.522 217.419C99.4573 215.35 97.125 213.682 95.5216 209.419C95.2609 206.352 95.2609 206.352 95.247 202.71C95.2419 202.045 95.2367 201.379 95.2315 200.693C95.2176 198.499 95.2185 196.305 95.2208 194.11C95.217 192.581 95.2126 191.052 95.2079 189.522C95.2004 186.319 95.2007 183.115 95.206 179.912C95.2117 175.812 95.1948 171.712 95.1716 167.612C95.1569 164.454 95.156 161.296 95.1591 158.138C95.1586 156.627 95.1534 155.115 95.1433 153.604C95.1309 151.488 95.1377 149.373 95.1493 147.257C95.1487 146.054 95.1481 144.852 95.1474 143.613C95.7012 138.886 97.8819 135.452 101.522 132.419C105.141 131.213 107.714 131.096 111.522 131.419Z" fill="white"/>
<path d="M111.521 131.419C114.622 133.174 117.01 134.907 119.521 137.419C119.146 139.544 119.146 139.544 118.521 141.419C118.088 140.635 117.655 139.851 117.209 139.044C115.629 136.202 115.629 136.202 112.521 134.419C110.307 134.066 110.307 134.066 107.959 134.106C107.174 134.089 106.389 134.073 105.58 134.055C104.901 134.175 104.221 134.295 103.521 134.419C102.531 135.904 102.531 135.904 101.521 137.419C100.201 137.089 98.8815 136.759 97.5215 136.419C101.912 131.725 105.082 130.873 111.521 131.419Z" fill="white"/>
</svg>
