<svg width="591" height="783" viewBox="0 0 591 783" fill="none" xmlns="http://www.w3.org/2000/svg">
<rect width="591" height="783" rx="74" fill="white"/>
<rect width="591" height="783" rx="74" stroke="black"/>
<mask id="path-2-outside-1_2016_29" maskUnits="userSpaceOnUse" x="2.77591" y="2.01877" width="586" height="778" fill="black">
<rect fill="white" x="2.77591" y="2.01877" width="586" height="778"/>
<path d="M107.887 4.13497C112.417 4.12898 116.946 4.11951 121.476 4.10729C133.726 4.0841 145.974 4.10729 158.222 4.1407C171.065 4.16888 183.905 4.15865 196.748 4.15367C218.303 4.15142 239.862 4.1791 261.417 4.22497C286.317 4.27783 311.22 4.28656 336.12 4.2711C360.109 4.25689 384.098 4.27085 408.087 4.29878C418.282 4.3105 428.476 4.31274 438.671 4.3075C450.678 4.30276 462.684 4.32296 474.69 4.36235C479.089 4.37282 483.489 4.37507 487.888 4.36809C493.905 4.36011 499.922 4.3828 505.939 4.41322C508.535 4.399 508.535 4.39901 511.182 4.3848C536.089 4.60645 554.831 13.6318 572.812 31.8173C584.86 49.3218 587.361 66.1242 587.168 87.4515C587.186 91.4883 587.189 91.4883 587.207 95.6067C587.24 104.582 587.205 113.555 587.17 122.53C587.177 128.981 587.191 135.433 587.207 141.885C587.24 157.564 587.221 173.242 587.186 188.92C587.147 207.196 587.156 225.471 587.163 243.747C587.177 276.364 587.144 308.981 587.089 341.598C587.033 373.218 587.017 404.838 587.04 436.455C587.065 470.922 587.07 505.389 587.038 539.856C587.033 543.536 587.031 547.214 587.026 550.891C587.026 552.701 587.024 554.511 587.021 556.376C587.01 569.102 587.014 581.828 587.024 594.553C587.038 611.695 587.012 628.836 586.961 645.977C586.949 652.263 586.947 658.551 586.959 664.836C586.972 673.426 586.945 682.015 586.905 690.604C586.926 694.324 586.926 694.324 586.947 698.119C586.74 722.503 581.088 742.736 565.087 760.526C547.789 775.952 527.548 778.749 505.66 778.629C503.771 778.637 501.881 778.647 499.934 778.657C493.661 778.682 487.389 778.674 481.116 778.664C476.596 778.674 472.073 778.687 467.55 778.702C455.312 778.734 443.071 778.737 430.832 778.729C420.597 778.727 410.364 778.739 400.129 778.751C375.98 778.779 351.83 778.781 327.679 778.766C302.8 778.751 277.918 778.781 253.037 778.834C231.641 778.879 210.246 778.894 188.848 778.886C176.085 778.881 163.321 778.886 150.557 778.921C138.553 778.953 126.549 778.948 114.543 778.916C110.151 778.909 105.756 778.916 101.363 778.936C47.3189 779.173 47.3189 779.173 25.4948 760.224C12.4791 745.843 4.71646 729.163 4.67486 709.149C4.6644 706.843 4.65417 704.534 4.64348 702.158C4.64371 699.63 4.64418 697.104 4.64464 694.501C4.63604 691.811 4.62768 689.121 4.61885 686.348C4.59305 677.3 4.58422 668.252 4.57539 659.204C4.56075 652.731 4.54541 646.256 4.52914 639.781C4.48312 620.331 4.45965 600.881 4.43897 581.431C4.42897 572.266 4.41642 563.103 4.40434 553.94C4.3646 523.473 4.33113 493.005 4.31417 462.537C4.30975 454.631 4.30533 446.727 4.30068 438.823C4.29952 436.859 4.29859 434.897 4.29743 432.872C4.27814 401.053 4.21911 369.234 4.14358 337.414C4.06688 304.735 4.02505 272.056 4.01761 239.376C4.0125 221.033 3.99228 202.688 3.93279 184.345C3.87701 167.087 3.86887 149.83 3.89281 132.572C3.89397 126.241 3.8791 119.91 3.84726 113.579C3.80612 104.929 3.82262 96.2804 3.85307 87.63C3.81495 83.8821 3.81495 83.8821 3.77591 80.0584C3.95719 58.7791 9.5145 40.5295 23.5793 25.0094C47.7389 1.80076 77.4444 3.9921 107.887 4.13497ZM66.1369 70.5194C62.3182 75.9754 62.215 78.8848 62.2111 85.6648C62.1927 87.8811 62.1746 90.0973 62.156 92.3807C62.1716 94.8181 62.1869 97.2553 62.2029 99.7663C62.1922 102.354 62.1813 104.941 62.1702 107.606C62.142 116.318 62.1644 125.028 62.1862 133.74C62.1767 139.968 62.1644 146.196 62.1492 152.424C62.1207 167.61 62.1248 182.797 62.1451 197.981C62.1609 210.32 62.163 222.659 62.1553 234.998C62.1544 236.754 62.1532 238.506 62.152 240.314C62.15 243.879 62.1476 247.442 62.1453 251.005C62.1255 284.445 62.1483 317.882 62.1857 351.319C62.2169 380.027 62.2115 408.735 62.1795 437.442C62.142 470.757 62.1274 504.075 62.1488 537.39C62.1511 540.94 62.1532 544.493 62.1553 548.044C62.1565 549.792 62.1576 551.537 62.1586 553.337C62.1646 565.666 62.1546 577.993 62.1381 590.322C62.1165 606.905 62.1318 623.49 62.1723 640.076C62.1816 646.174 62.1788 652.275 62.1634 658.374C62.1444 666.676 62.1681 674.974 62.2029 683.277C62.1874 685.712 62.172 688.151 62.156 690.662C62.1741 692.878 62.1923 695.092 62.2111 697.376C62.2122 699.293 62.2132 701.211 62.2143 703.185C63.3382 709.591 65.2198 711.792 70.0606 715.647C76.2115 716.382 81.8162 716.656 87.9689 716.597C89.811 716.609 91.6533 716.619 93.5511 716.632C99.7436 716.661 105.937 716.639 112.131 716.614C116.561 716.624 120.993 716.639 125.425 716.654C137.477 716.689 149.53 716.674 161.582 716.651C174.176 716.632 186.773 716.649 199.369 716.661C220.525 716.676 241.681 716.656 262.835 716.622C287.314 716.582 311.794 716.594 336.275 716.637C357.269 716.669 378.264 716.674 399.258 716.654C411.808 716.642 424.358 716.642 436.905 716.666C448.702 716.686 460.499 716.671 472.296 716.629C476.633 716.619 480.969 716.622 485.306 716.639C491.212 716.659 497.115 716.634 503.02 716.597C504.749 716.614 506.481 716.629 508.261 716.647C517.132 716.662 517.132 716.661 524.853 712.523C528.671 707.067 528.776 704.158 528.778 697.376C528.796 695.159 528.815 692.945 528.834 690.662C528.82 688.223 528.803 685.787 528.787 683.277C528.803 679.395 528.803 679.394 528.82 675.435C528.848 666.724 528.827 658.015 528.803 649.303C528.813 643.075 528.827 636.847 528.841 630.619C528.868 615.432 528.866 600.246 528.845 585.061C528.829 572.722 528.827 560.383 528.834 548.044C528.836 545.411 528.836 545.411 528.838 542.728C528.841 539.163 528.843 535.6 528.845 532.035C528.864 498.597 528.841 465.16 528.803 431.723C528.773 403.015 528.778 374.307 528.81 345.6C528.848 312.282 528.861 278.967 528.841 245.652C528.838 242.099 528.836 238.549 528.834 234.998C528.834 233.25 528.831 231.503 528.831 229.703C528.824 217.376 528.836 205.049 528.852 192.72C528.873 176.137 528.859 159.552 528.817 142.967C528.808 136.867 528.81 130.767 528.827 124.667C528.845 116.366 528.822 108.067 528.787 99.7663C528.81 96.1104 528.81 96.1104 528.834 92.3807C528.815 90.1644 528.799 87.9481 528.778 85.6648C528.778 83.748 528.778 81.8309 528.776 79.856C527.651 73.4502 525.77 71.2497 520.929 67.3951C514.778 66.6603 509.174 66.386 503.02 66.4454C501.18 66.4337 499.337 66.422 497.438 66.41C491.246 66.3801 485.053 66.4038 478.859 66.4272C474.43 66.4172 469.998 66.4038 465.566 66.3876C453.513 66.3534 441.46 66.3666 429.408 66.3903C416.814 66.4092 404.217 66.3918 391.621 66.3801C370.465 66.3664 349.309 66.3843 328.155 66.42C303.676 66.4606 279.196 66.4474 254.715 66.4063C233.721 66.3723 212.726 66.3676 191.732 66.387C179.182 66.3988 166.633 66.4003 154.083 66.3756C142.288 66.3541 130.491 66.3689 118.694 66.4122C114.357 66.4222 110.021 66.4192 105.684 66.4028C99.7784 66.3826 93.8744 66.408 87.9689 66.4454C86.2396 66.4287 84.5103 66.412 82.7286 66.3948C73.8577 66.3808 73.8577 66.3808 66.1369 70.5194Z"/>
</mask>
<path d="M107.887 4.13497C112.417 4.12898 116.946 4.11951 121.476 4.10729C133.726 4.0841 145.974 4.10729 158.222 4.1407C171.065 4.16888 183.905 4.15865 196.748 4.15367C218.303 4.15142 239.862 4.1791 261.417 4.22497C286.317 4.27783 311.22 4.28656 336.12 4.2711C360.109 4.25689 384.098 4.27085 408.087 4.29878C418.282 4.3105 428.476 4.31274 438.671 4.3075C450.678 4.30276 462.684 4.32296 474.69 4.36235C479.089 4.37282 483.489 4.37507 487.888 4.36809C493.905 4.36011 499.922 4.3828 505.939 4.41322C508.535 4.399 508.535 4.39901 511.182 4.3848C536.089 4.60645 554.831 13.6318 572.812 31.8173C584.86 49.3218 587.361 66.1242 587.168 87.4515C587.186 91.4883 587.189 91.4883 587.207 95.6067C587.24 104.582 587.205 113.555 587.17 122.53C587.177 128.981 587.191 135.433 587.207 141.885C587.24 157.564 587.221 173.242 587.186 188.92C587.147 207.196 587.156 225.471 587.163 243.747C587.177 276.364 587.144 308.981 587.089 341.598C587.033 373.218 587.017 404.838 587.04 436.455C587.065 470.922 587.07 505.389 587.038 539.856C587.033 543.536 587.031 547.214 587.026 550.891C587.026 552.701 587.024 554.511 587.021 556.376C587.01 569.102 587.014 581.828 587.024 594.553C587.038 611.695 587.012 628.836 586.961 645.977C586.949 652.263 586.947 658.551 586.959 664.836C586.972 673.426 586.945 682.015 586.905 690.604C586.926 694.324 586.926 694.324 586.947 698.119C586.74 722.503 581.088 742.736 565.087 760.526C547.789 775.952 527.548 778.749 505.66 778.629C503.771 778.637 501.881 778.647 499.934 778.657C493.661 778.682 487.389 778.674 481.116 778.664C476.596 778.674 472.073 778.687 467.55 778.702C455.312 778.734 443.071 778.737 430.832 778.729C420.597 778.727 410.364 778.739 400.129 778.751C375.98 778.779 351.83 778.781 327.679 778.766C302.8 778.751 277.918 778.781 253.037 778.834C231.641 778.879 210.246 778.894 188.848 778.886C176.085 778.881 163.321 778.886 150.557 778.921C138.553 778.953 126.549 778.948 114.543 778.916C110.151 778.909 105.756 778.916 101.363 778.936C47.3189 779.173 47.3189 779.173 25.4948 760.224C12.4791 745.843 4.71646 729.163 4.67486 709.149C4.6644 706.843 4.65417 704.534 4.64348 702.158C4.64371 699.63 4.64418 697.104 4.64464 694.501C4.63604 691.811 4.62768 689.121 4.61885 686.348C4.59305 677.3 4.58422 668.252 4.57539 659.204C4.56075 652.731 4.54541 646.256 4.52914 639.781C4.48312 620.331 4.45965 600.881 4.43897 581.431C4.42897 572.266 4.41642 563.103 4.40434 553.94C4.3646 523.473 4.33113 493.005 4.31417 462.537C4.30975 454.631 4.30533 446.727 4.30068 438.823C4.29952 436.859 4.29859 434.897 4.29743 432.872C4.27814 401.053 4.21911 369.234 4.14358 337.414C4.06688 304.735 4.02505 272.056 4.01761 239.376C4.0125 221.033 3.99228 202.688 3.93279 184.345C3.87701 167.087 3.86887 149.83 3.89281 132.572C3.89397 126.241 3.8791 119.91 3.84726 113.579C3.80612 104.929 3.82262 96.2804 3.85307 87.63C3.81495 83.8821 3.81495 83.8821 3.77591 80.0584C3.95719 58.7791 9.5145 40.5295 23.5793 25.0094C47.7389 1.80076 77.4444 3.9921 107.887 4.13497ZM66.1369 70.5194C62.3182 75.9754 62.215 78.8848 62.2111 85.6648C62.1927 87.8811 62.1746 90.0973 62.156 92.3807C62.1716 94.8181 62.1869 97.2553 62.2029 99.7663C62.1922 102.354 62.1813 104.941 62.1702 107.606C62.142 116.318 62.1644 125.028 62.1862 133.74C62.1767 139.968 62.1644 146.196 62.1492 152.424C62.1207 167.61 62.1248 182.797 62.1451 197.981C62.1609 210.32 62.163 222.659 62.1553 234.998C62.1544 236.754 62.1532 238.506 62.152 240.314C62.15 243.879 62.1476 247.442 62.1453 251.005C62.1255 284.445 62.1483 317.882 62.1857 351.319C62.2169 380.027 62.2115 408.735 62.1795 437.442C62.142 470.757 62.1274 504.075 62.1488 537.39C62.1511 540.94 62.1532 544.493 62.1553 548.044C62.1565 549.792 62.1576 551.537 62.1586 553.337C62.1646 565.666 62.1546 577.993 62.1381 590.322C62.1165 606.905 62.1318 623.49 62.1723 640.076C62.1816 646.174 62.1788 652.275 62.1634 658.374C62.1444 666.676 62.1681 674.974 62.2029 683.277C62.1874 685.712 62.172 688.151 62.156 690.662C62.1741 692.878 62.1923 695.092 62.2111 697.376C62.2122 699.293 62.2132 701.211 62.2143 703.185C63.3382 709.591 65.2198 711.792 70.0606 715.647C76.2115 716.382 81.8162 716.656 87.9689 716.597C89.811 716.609 91.6533 716.619 93.5511 716.632C99.7436 716.661 105.937 716.639 112.131 716.614C116.561 716.624 120.993 716.639 125.425 716.654C137.477 716.689 149.53 716.674 161.582 716.651C174.176 716.632 186.773 716.649 199.369 716.661C220.525 716.676 241.681 716.656 262.835 716.622C287.314 716.582 311.794 716.594 336.275 716.637C357.269 716.669 378.264 716.674 399.258 716.654C411.808 716.642 424.358 716.642 436.905 716.666C448.702 716.686 460.499 716.671 472.296 716.629C476.633 716.619 480.969 716.622 485.306 716.639C491.212 716.659 497.115 716.634 503.02 716.597C504.749 716.614 506.481 716.629 508.261 716.647C517.132 716.662 517.132 716.661 524.853 712.523C528.671 707.067 528.776 704.158 528.778 697.376C528.796 695.159 528.815 692.945 528.834 690.662C528.82 688.223 528.803 685.787 528.787 683.277C528.803 679.395 528.803 679.394 528.82 675.435C528.848 666.724 528.827 658.015 528.803 649.303C528.813 643.075 528.827 636.847 528.841 630.619C528.868 615.432 528.866 600.246 528.845 585.061C528.829 572.722 528.827 560.383 528.834 548.044C528.836 545.411 528.836 545.411 528.838 542.728C528.841 539.163 528.843 535.6 528.845 532.035C528.864 498.597 528.841 465.16 528.803 431.723C528.773 403.015 528.778 374.307 528.81 345.6C528.848 312.282 528.861 278.967 528.841 245.652C528.838 242.099 528.836 238.549 528.834 234.998C528.834 233.25 528.831 231.503 528.831 229.703C528.824 217.376 528.836 205.049 528.852 192.72C528.873 176.137 528.859 159.552 528.817 142.967C528.808 136.867 528.81 130.767 528.827 124.667C528.845 116.366 528.822 108.067 528.787 99.7663C528.81 96.1104 528.81 96.1104 528.834 92.3807C528.815 90.1644 528.799 87.9481 528.778 85.6648C528.778 83.748 528.778 81.8309 528.776 79.856C527.651 73.4502 525.77 71.2497 520.929 67.3951C514.778 66.6603 509.174 66.386 503.02 66.4454C501.18 66.4337 499.337 66.422 497.438 66.41C491.246 66.3801 485.053 66.4038 478.859 66.4272C474.43 66.4172 469.998 66.4038 465.566 66.3876C453.513 66.3534 441.46 66.3666 429.408 66.3903C416.814 66.4092 404.217 66.3918 391.621 66.3801C370.465 66.3664 349.309 66.3843 328.155 66.42C303.676 66.4606 279.196 66.4474 254.715 66.4063C233.721 66.3723 212.726 66.3676 191.732 66.387C179.182 66.3988 166.633 66.4003 154.083 66.3756C142.288 66.3541 130.491 66.3689 118.694 66.4122C114.357 66.4222 110.021 66.4192 105.684 66.4028C99.7784 66.3826 93.8744 66.408 87.9689 66.4454C86.2396 66.4287 84.5103 66.412 82.7286 66.3948C73.8577 66.3808 73.8577 66.3808 66.1369 70.5194Z" fill="#2F3238"/>
<path d="M107.887 4.13497C112.417 4.12898 116.946 4.11951 121.476 4.10729C133.726 4.0841 145.974 4.10729 158.222 4.1407C171.065 4.16888 183.905 4.15865 196.748 4.15367C218.303 4.15142 239.862 4.1791 261.417 4.22497C286.317 4.27783 311.22 4.28656 336.12 4.2711C360.109 4.25689 384.098 4.27085 408.087 4.29878C418.282 4.3105 428.476 4.31274 438.671 4.3075C450.678 4.30276 462.684 4.32296 474.69 4.36235C479.089 4.37282 483.489 4.37507 487.888 4.36809C493.905 4.36011 499.922 4.3828 505.939 4.41322C508.535 4.399 508.535 4.39901 511.182 4.3848C536.089 4.60645 554.831 13.6318 572.812 31.8173C584.86 49.3218 587.361 66.1242 587.168 87.4515C587.186 91.4883 587.189 91.4883 587.207 95.6067C587.24 104.582 587.205 113.555 587.17 122.53C587.177 128.981 587.191 135.433 587.207 141.885C587.24 157.564 587.221 173.242 587.186 188.92C587.147 207.196 587.156 225.471 587.163 243.747C587.177 276.364 587.144 308.981 587.089 341.598C587.033 373.218 587.017 404.838 587.04 436.455C587.065 470.922 587.07 505.389 587.038 539.856C587.033 543.536 587.031 547.214 587.026 550.891C587.026 552.701 587.024 554.511 587.021 556.376C587.01 569.102 587.014 581.828 587.024 594.553C587.038 611.695 587.012 628.836 586.961 645.977C586.949 652.263 586.947 658.551 586.959 664.836C586.972 673.426 586.945 682.015 586.905 690.604C586.926 694.324 586.926 694.324 586.947 698.119C586.74 722.503 581.088 742.736 565.087 760.526C547.789 775.952 527.548 778.749 505.66 778.629C503.771 778.637 501.881 778.647 499.934 778.657C493.661 778.682 487.389 778.674 481.116 778.664C476.596 778.674 472.073 778.687 467.55 778.702C455.312 778.734 443.071 778.737 430.832 778.729C420.597 778.727 410.364 778.739 400.129 778.751C375.98 778.779 351.83 778.781 327.679 778.766C302.8 778.751 277.918 778.781 253.037 778.834C231.641 778.879 210.246 778.894 188.848 778.886C176.085 778.881 163.321 778.886 150.557 778.921C138.553 778.953 126.549 778.948 114.543 778.916C110.151 778.909 105.756 778.916 101.363 778.936C47.3189 779.173 47.3189 779.173 25.4948 760.224C12.4791 745.843 4.71646 729.163 4.67486 709.149C4.6644 706.843 4.65417 704.534 4.64348 702.158C4.64371 699.63 4.64418 697.104 4.64464 694.501C4.63604 691.811 4.62768 689.121 4.61885 686.348C4.59305 677.3 4.58422 668.252 4.57539 659.204C4.56075 652.731 4.54541 646.256 4.52914 639.781C4.48312 620.331 4.45965 600.881 4.43897 581.431C4.42897 572.266 4.41642 563.103 4.40434 553.94C4.3646 523.473 4.33113 493.005 4.31417 462.537C4.30975 454.631 4.30533 446.727 4.30068 438.823C4.29952 436.859 4.29859 434.897 4.29743 432.872C4.27814 401.053 4.21911 369.234 4.14358 337.414C4.06688 304.735 4.02505 272.056 4.01761 239.376C4.0125 221.033 3.99228 202.688 3.93279 184.345C3.87701 167.087 3.86887 149.83 3.89281 132.572C3.89397 126.241 3.8791 119.91 3.84726 113.579C3.80612 104.929 3.82262 96.2804 3.85307 87.63C3.81495 83.8821 3.81495 83.8821 3.77591 80.0584C3.95719 58.7791 9.5145 40.5295 23.5793 25.0094C47.7389 1.80076 77.4444 3.9921 107.887 4.13497ZM66.1369 70.5194C62.3182 75.9754 62.215 78.8848 62.2111 85.6648C62.1927 87.8811 62.1746 90.0973 62.156 92.3807C62.1716 94.8181 62.1869 97.2553 62.2029 99.7663C62.1922 102.354 62.1813 104.941 62.1702 107.606C62.142 116.318 62.1644 125.028 62.1862 133.74C62.1767 139.968 62.1644 146.196 62.1492 152.424C62.1207 167.61 62.1248 182.797 62.1451 197.981C62.1609 210.32 62.163 222.659 62.1553 234.998C62.1544 236.754 62.1532 238.506 62.152 240.314C62.15 243.879 62.1476 247.442 62.1453 251.005C62.1255 284.445 62.1483 317.882 62.1857 351.319C62.2169 380.027 62.2115 408.735 62.1795 437.442C62.142 470.757 62.1274 504.075 62.1488 537.39C62.1511 540.94 62.1532 544.493 62.1553 548.044C62.1565 549.792 62.1576 551.537 62.1586 553.337C62.1646 565.666 62.1546 577.993 62.1381 590.322C62.1165 606.905 62.1318 623.49 62.1723 640.076C62.1816 646.174 62.1788 652.275 62.1634 658.374C62.1444 666.676 62.1681 674.974 62.2029 683.277C62.1874 685.712 62.172 688.151 62.156 690.662C62.1741 692.878 62.1923 695.092 62.2111 697.376C62.2122 699.293 62.2132 701.211 62.2143 703.185C63.3382 709.591 65.2198 711.792 70.0606 715.647C76.2115 716.382 81.8162 716.656 87.9689 716.597C89.811 716.609 91.6533 716.619 93.5511 716.632C99.7436 716.661 105.937 716.639 112.131 716.614C116.561 716.624 120.993 716.639 125.425 716.654C137.477 716.689 149.53 716.674 161.582 716.651C174.176 716.632 186.773 716.649 199.369 716.661C220.525 716.676 241.681 716.656 262.835 716.622C287.314 716.582 311.794 716.594 336.275 716.637C357.269 716.669 378.264 716.674 399.258 716.654C411.808 716.642 424.358 716.642 436.905 716.666C448.702 716.686 460.499 716.671 472.296 716.629C476.633 716.619 480.969 716.622 485.306 716.639C491.212 716.659 497.115 716.634 503.02 716.597C504.749 716.614 506.481 716.629 508.261 716.647C517.132 716.662 517.132 716.661 524.853 712.523C528.671 707.067 528.776 704.158 528.778 697.376C528.796 695.159 528.815 692.945 528.834 690.662C528.82 688.223 528.803 685.787 528.787 683.277C528.803 679.395 528.803 679.394 528.82 675.435C528.848 666.724 528.827 658.015 528.803 649.303C528.813 643.075 528.827 636.847 528.841 630.619C528.868 615.432 528.866 600.246 528.845 585.061C528.829 572.722 528.827 560.383 528.834 548.044C528.836 545.411 528.836 545.411 528.838 542.728C528.841 539.163 528.843 535.6 528.845 532.035C528.864 498.597 528.841 465.16 528.803 431.723C528.773 403.015 528.778 374.307 528.81 345.6C528.848 312.282 528.861 278.967 528.841 245.652C528.838 242.099 528.836 238.549 528.834 234.998C528.834 233.25 528.831 231.503 528.831 229.703C528.824 217.376 528.836 205.049 528.852 192.72C528.873 176.137 528.859 159.552 528.817 142.967C528.808 136.867 528.81 130.767 528.827 124.667C528.845 116.366 528.822 108.067 528.787 99.7663C528.81 96.1104 528.81 96.1104 528.834 92.3807C528.815 90.1644 528.799 87.9481 528.778 85.6648C528.778 83.748 528.778 81.8309 528.776 79.856C527.651 73.4502 525.77 71.2497 520.929 67.3951C514.778 66.6603 509.174 66.386 503.02 66.4454C501.18 66.4337 499.337 66.422 497.438 66.41C491.246 66.3801 485.053 66.4038 478.859 66.4272C474.43 66.4172 469.998 66.4038 465.566 66.3876C453.513 66.3534 441.46 66.3666 429.408 66.3903C416.814 66.4092 404.217 66.3918 391.621 66.3801C370.465 66.3664 349.309 66.3843 328.155 66.42C303.676 66.4606 279.196 66.4474 254.715 66.4063C233.721 66.3723 212.726 66.3676 191.732 66.387C179.182 66.3988 166.633 66.4003 154.083 66.3756C142.288 66.3541 130.491 66.3689 118.694 66.4122C114.357 66.4222 110.021 66.4192 105.684 66.4028C99.7784 66.3826 93.8744 66.408 87.9689 66.4454C86.2396 66.4287 84.5103 66.412 82.7286 66.3948C73.8577 66.3808 73.8577 66.3808 66.1369 70.5194Z" stroke="black" stroke-width="2" mask="url(#path-2-outside-1_2016_29)"/>
<path d="M407.405 187.742L408.684 187.759C414.999 187.869 420.106 188.292 424.866 189.796C429.637 191.303 434.029 193.886 438.94 198.271L439.93 199.172L439.957 199.198L439.98 199.227C447.527 208.673 448.146 217.237 447.724 229.104L447.723 229.127L447.72 229.148C447.094 234.211 445.822 238.148 443.796 241.629C441.774 245.104 439.014 248.097 435.452 251.29L435.4 251.337L435.336 251.368C424.414 256.673 414.01 255.95 402.336 255.898C399.751 255.916 397.166 255.931 394.504 255.951H394.503C385.954 255.996 377.407 255.985 368.859 255.97C362.917 255.983 356.977 255.995 351.035 256.01C338.579 256.033 326.124 256.027 313.668 256.003C299.291 255.973 284.915 256.008 270.537 256.075C256.682 256.137 242.827 256.143 228.97 256.128C226.029 256.128 223.087 256.131 220.145 256.138L211.32 256.172C203.089 256.21 194.864 256.185 186.635 256.14C184.206 256.165 181.776 256.19 179.274 256.214H179.263C172.32 256.138 166.758 255.821 161.606 254.246C156.439 252.666 151.716 249.833 146.413 244.78L146.366 244.736L146.333 244.681C139.306 233.376 140.489 222.502 141.611 209.469L141.617 209.406L141.637 209.347C143.162 204.984 144.55 202.073 146.481 199.613C148.41 197.156 150.858 195.179 154.445 192.648L154.49 192.617L154.54 192.595C166.052 187.748 176.365 188.001 188.494 188.058C192.303 188.031 192.304 188.031 196.192 188.006L202.481 187.982C208.769 187.966 215.056 187.973 221.342 187.984C227.178 187.974 233.014 187.959 238.847 187.944L248.014 187.932C257.182 187.925 266.349 187.933 275.516 187.954L286.095 187.964C296.674 187.962 307.254 187.929 317.834 187.879H317.835C331.436 187.816 345.037 187.812 358.638 187.827L367.297 187.816C370.184 187.808 373.071 187.797 375.959 187.782C384.031 187.744 392.1 187.772 400.172 187.814C403.745 187.777 403.746 187.777 407.394 187.742H407.405Z" fill="#31343A" stroke="black"/>
<path d="M262.96 331.682C273.307 337.447 278.799 342.945 283.877 354.122C284.763 361.956 284.763 361.956 284.779 370.864C284.79 372.495 284.802 374.125 284.816 375.806C284.846 381.171 284.825 386.534 284.802 391.9C284.807 395.647 284.814 399.395 284.823 403.142C284.832 410.988 284.818 418.832 284.786 426.676C284.746 436.707 284.767 446.735 284.809 456.765C284.835 464.502 284.828 472.238 284.809 479.975C284.804 483.672 284.811 487.367 284.828 491.065C284.844 496.243 284.816 501.422 284.779 506.601C284.772 509.543 284.767 512.482 284.763 515.514C283.505 527.073 280.142 535.557 271.966 543.299C262.565 547.246 254.327 547.817 244.368 546.104C234.921 540.945 229.501 536.787 225.775 526.158C225.169 518.511 225.169 518.511 225.136 509.43C225.125 507.772 225.113 506.112 225.099 504.401C225.069 498.931 225.071 493.461 225.076 487.988C225.067 484.176 225.057 480.364 225.046 476.549C225.027 468.563 225.029 460.575 225.041 452.589C225.055 442.366 225.015 432.144 224.962 421.921C224.927 414.048 224.925 406.174 224.932 398.3C224.932 394.533 224.918 390.763 224.895 386.996C224.867 381.72 224.883 376.447 224.909 371.171C224.909 368.171 224.906 365.175 224.904 362.085C226.191 350.3 231.26 341.738 239.72 334.176C248.131 331.169 254.11 330.877 262.96 331.682Z" fill="#2E3237"/>
<path d="M262.958 331.682C270.165 336.058 275.715 340.379 281.551 346.642C280.679 351.94 280.679 351.94 279.227 356.615C278.22 354.66 277.214 352.706 276.177 350.694C272.505 343.608 272.505 343.608 265.282 339.162C260.137 338.282 260.137 338.282 254.68 338.382C252.855 338.339 251.031 338.3 249.151 338.255C247.573 338.554 245.992 338.853 244.366 339.162C242.065 342.865 242.065 342.865 239.717 346.642C236.65 345.819 233.582 344.996 230.421 344.149C240.626 332.445 247.993 330.321 262.958 331.682Z" fill="#2E3237"/>
</svg>
